<svg width="20" height="21" viewBox="0 0 20 21" fill="none" xmlns="http://www.w3.org/2000/svg">
<path fill-rule="evenodd" clip-rule="evenodd" d="M3.33337 7.42545C3.33337 6.43088 3.72846 5.47706 4.43172 4.7738C5.13498 4.07053 6.08881 3.67545 7.08337 3.67545H15.4167C15.7482 3.67545 16.0662 3.80714 16.3006 4.04156C16.535 4.27598 16.6667 4.59392 16.6667 4.92545V17.4254C16.6667 17.6465 16.5789 17.8584 16.4226 18.0147C16.2663 18.171 16.0544 18.2588 15.8334 18.2588H6.25004C5.54855 18.259 4.8705 18.0063 4.34017 17.5471C3.80984 17.088 3.46275 16.4531 3.36254 15.7588H3.33337V7.42545ZM15.4167 13.6754H6.25004C5.80801 13.6754 5.38409 13.851 5.07153 14.1636C4.75897 14.4762 4.58337 14.9001 4.58337 15.3421C4.58337 15.7841 4.75897 16.2081 5.07153 16.5206C5.38409 16.8332 5.80801 17.0088 6.25004 17.0088H15.4167V13.6754ZM6.87504 7.42545C6.87504 7.25969 6.94089 7.10071 7.0581 6.9835C7.17531 6.86629 7.33428 6.80045 7.50004 6.80045H13.3334C13.4991 6.80045 13.6581 6.86629 13.7753 6.9835C13.8925 7.10071 13.9584 7.25969 13.9584 7.42545C13.9584 7.59121 13.8925 7.75018 13.7753 7.86739C13.6581 7.9846 13.4991 8.05045 13.3334 8.05045H7.50004C7.33428 8.05045 7.17531 7.9846 7.0581 7.86739C6.94089 7.75018 6.87504 7.59121 6.87504 7.42545ZM7.50004 9.30045C7.33428 9.30045 7.17531 9.36629 7.0581 9.4835C6.94089 9.60071 6.87504 9.75969 6.87504 9.92545C6.87504 10.0912 6.94089 10.2502 7.0581 10.3674C7.17531 10.4846 7.33428 10.5504 7.50004 10.5504H11.6667C11.8325 10.5504 11.9914 10.4846 12.1086 10.3674C12.2259 10.2502 12.2917 10.0912 12.2917 9.92545C12.2917 9.75969 12.2259 9.60071 12.1086 9.4835C11.9914 9.36629 11.8325 9.30045 11.6667 9.30045H7.50004Z" fill="#742AA2"/>
</svg>
