<svg width="24" height="24" viewBox="0 0 24 24" fill="none" xmlns="http://www.w3.org/2000/svg">
<path d="M20 16V18.5C20 20.1539 18.6539 21.5 17 21.5H7C5.34614 21.5 4 20.1539 4 18.5V17.85C4 16.5561 5.05614 15.5 6.35 15.5H19.5C19.7739 15.5 20 15.7261 20 16Z" fill="#6C7E8E" stroke="#6C7E8E"/>
<path d="M8.5 2.5H15.5C17.5036 2.5 18.5555 2.76256 19.1464 3.35355C19.7374 3.94455 20 4.99643 20 7V12.5C20 12.7739 19.7739 13 19.5 13H6.35C5.4979 13 4.69536 13.2245 4 13.6153V7C4 4.99643 4.26256 3.94455 4.85355 3.35355C5.44455 2.76256 6.49643 2.5 8.5 2.5ZM8 11.25H13C13.6861 11.25 14.25 10.6861 14.25 10C14.25 9.31386 13.6861 8.75 13 8.75H8C7.31386 8.75 6.75 9.31386 6.75 10C6.75 10.6861 7.31386 11.25 8 11.25ZM8 7.75H16C16.6861 7.75 17.25 7.18614 17.25 6.5C17.25 5.81386 16.6861 5.25 16 5.25H8C7.31386 5.25 6.75 5.81386 6.75 6.5C6.75 7.18614 7.31386 7.75 8 7.75Z" fill="#6C7E8E" stroke="#6C7E8E"/>
</svg>
