<svg width="24" height="24" viewBox="0 0 24 24" fill="none" xmlns="http://www.w3.org/2000/svg">
<path d="M20.1786 18.2238L20.1786 18.2238L20.176 18.2241L19.866 18.2641L19.8635 18.2644C18.1692 18.4917 15.8162 19.1866 13.9274 19.9786C13.616 20.1073 13.25 19.8731 13.25 19.51V5.59999C13.25 5.42227 13.3517 5.24619 13.5288 5.1493C15.3004 4.19107 17.9898 3.33812 19.7916 3.17999H19.83C20.7539 3.17999 21.5 3.92613 21.5 4.84999V16.74C21.5 17.4553 20.9004 18.1345 20.1786 18.2238Z" fill="#6C7E8E" stroke="#6C7E8E"/>
<path d="M3.81139 18.2238L3.81399 18.2241L4.12399 18.2641L4.12648 18.2644C5.82082 18.4917 8.17372 19.1866 10.0625 19.9785M3.81139 18.2238L4.23 3.17999H4.20844M3.81139 18.2238C3.08961 18.1345 2.49 17.4553 2.49 16.74V4.84999C2.49 3.92613 3.23614 3.17999 4.16 3.17999H4.20844M3.81139 18.2238L4.20844 3.17999M10.0625 19.9785C10.0628 19.9787 10.0631 19.9788 10.0634 19.9789L9.87005 20.4399L10.0618 19.9782C10.062 19.9783 10.0623 19.9784 10.0625 19.9785ZM10.0625 19.9785C10.374 20.1073 10.74 19.8731 10.74 19.51V5.59999C10.74 5.40589 10.6426 5.24301 10.4712 5.14927M10.4712 5.14927C10.4715 5.14944 10.4718 5.1496 10.4721 5.14976L10.71 4.71L10.4706 5.14894C10.4708 5.14905 10.471 5.14916 10.4712 5.14927ZM10.4712 5.14927C8.69956 4.19106 6.01016 3.33812 4.20844 3.17999M7.25 7.23999H5C4.31386 7.23999 3.75 7.80385 3.75 8.48999C3.75 9.19047 4.31821 9.73999 5 9.73999H7.25C7.93179 9.73999 8.5 9.19047 8.5 8.48999C8.5 7.80385 7.93614 7.23999 7.25 7.23999ZM5 12.74H8C8.68179 12.74 9.25 12.1905 9.25 11.49C9.25 10.8039 8.68614 10.24 8 10.24H5C4.31386 10.24 3.75 10.8039 3.75 11.49C3.75 12.1905 4.31821 12.74 5 12.74Z" fill="#6C7E8E" stroke="#6C7E8E"/>
</svg>
