<svg width="24" height="24" viewBox="0 0 24 24" fill="none" xmlns="http://www.w3.org/2000/svg">
<path d="M10.0602 5.32772V5.33002V7.23002C10.0602 8.23615 9.79582 8.92234 9.35919 9.35896C8.92256 9.79559 8.23638 10.06 7.23024 10.06H5.33024C4.32411 10.06 3.63792 9.79559 3.2013 9.35896C2.76467 8.92234 2.50024 8.23615 2.50024 7.23002V5.33002C2.50024 4.32389 2.76466 3.63798 3.20215 3.20146C3.63983 2.76476 4.32853 2.50002 5.34024 2.50002H7.24024C8.24656 2.50002 8.93237 2.76452 9.36755 3.20067C9.80252 3.63662 10.0649 4.32201 10.0602 5.32772Z" fill="#6C7E8E" stroke="#6C7E8E"/>
<path d="M16.7707 2.50002H18.6707C19.6768 2.50002 20.363 2.76444 20.7996 3.20107C21.2362 3.6377 21.5007 4.32388 21.5007 5.33002V7.23002C21.5007 8.23615 21.2362 8.92234 20.7996 9.35896C20.363 9.79559 19.6768 10.06 18.6707 10.06H16.7707C15.7645 10.06 15.0784 9.79559 14.6417 9.35896C14.2051 8.92234 13.9407 8.23615 13.9407 7.23002V5.33002C13.9407 4.32388 14.2051 3.6377 14.6417 3.20107C15.0784 2.76444 15.7645 2.50002 16.7707 2.50002Z" fill="#6C7E8E" stroke="#6C7E8E"/>
<path d="M18.6707 13.43H16.7707C14.5907 13.43 13.4407 14.58 13.4407 16.76V18.66C13.4407 20.84 14.5907 21.99 16.7707 21.99H18.6707C20.8507 21.99 22.0007 20.84 22.0007 18.66V16.76C22.0007 14.58 20.8507 13.43 18.6707 13.43Z" fill="#6C7E8E"/>
<path d="M7.24024 13.43H5.34024C3.15024 13.43 2.00024 14.58 2.00024 16.76V18.66C2.00024 20.85 3.15024 22 5.33024 22H7.23024C9.41024 22 10.5602 20.85 10.5602 18.67V16.77C10.5702 14.58 9.42024 13.43 7.24024 13.43Z" fill="#6C7E8E"/>
</svg>
