<svg width="20" height="20" viewBox="0 0 20 20" fill="none" xmlns="http://www.w3.org/2000/svg">
<path d="M16.4424 8.51762C12.7307 4.58399 13.5766 1.50812 14.168 0.364313C14.1904 0.320287 14.1984 0.271592 14.1911 0.223753C14.1837 0.175915 14.1614 0.130848 14.1265 0.0936673C14.0916 0.0564865 14.0456 0.0286799 13.9937 0.0134028C13.9418 -0.00187435 13.8861 -0.00401042 13.8329 0.00723697C10.6425 0.68047 8.75036 2.12537 7.65687 3.79572C7.48559 3.09973 7.38314 2.39192 7.35069 1.68028C7.34786 1.63126 7.32921 1.58397 7.29694 1.54399C7.26467 1.504 7.22012 1.473 7.16855 1.45462C7.11697 1.43624 7.06051 1.43126 7.00584 1.44026C6.95116 1.44926 6.90053 1.47186 6.85993 1.50541C5.06791 3.0032 2.09667 7.75907 2.00132 12.4725C1.92084 16.4636 5.53243 19.7916 10.0556 19.7646C14.4483 19.7379 18 16.5872 18 12.7041C18 11.1372 17.4979 9.63633 16.4424 8.518V8.51762Z" fill="#EC6264"/>
<path d="M18 12.7035C18 16.5862 14.4483 19.7373 10.0555 19.764C9.74868 19.7662 9.44197 19.7524 9.13698 19.7227C13.1444 19.3366 16.2635 16.3422 16.2635 12.7035C16.2635 11.1366 15.7618 9.63575 14.7064 8.51743C11.0099 4.60117 11.8327 1.53418 12.4227 0.379568C12.8843 0.231654 13.3551 0.107276 13.8329 0.00705045C13.8861 -0.00415481 13.9418 -0.00196899 13.9937 0.0133598C14.0456 0.0286886 14.0915 0.0565464 14.1264 0.0937709C14.1612 0.130995 14.1835 0.176096 14.1908 0.223952C14.1981 0.271809 14.19 0.320505 14.1675 0.364513C13.5761 1.50754 12.7306 4.58419 16.4419 8.51743C17.4974 9.63691 17.9995 11.1366 17.9995 12.7035H18Z" fill="#E64649"/>
<path d="M14.1928 13.879C14.1928 14.8604 13.7511 15.8016 12.9648 16.4956C12.1785 17.1896 11.112 17.5794 9.99996 17.5794C8.88793 17.5794 7.82146 17.1896 7.03514 16.4956C6.24882 15.8016 5.80707 14.8604 5.80707 13.879C5.80707 12.1909 8.66808 9.20301 9.6636 8.21478C9.70579 8.17281 9.75758 8.13921 9.81556 8.1162C9.87354 8.0932 9.93639 8.0813 9.99996 8.0813C10.0635 8.0813 10.1264 8.0932 10.1844 8.1162C10.2423 8.13921 10.2941 8.17281 10.3363 8.21478C11.3318 9.20301 14.1928 12.1909 14.1928 13.879Z" fill="#FFC785"/>
<path d="M14.1929 13.879C14.1929 14.8604 13.7511 15.8017 12.9648 16.4957C12.1785 17.1898 11.112 17.5797 9.99998 17.5798C9.72526 17.5799 9.45118 17.5563 9.18161 17.5096C10.1326 17.3421 10.9885 16.8891 11.6037 16.2275C12.2189 15.566 12.5555 14.7367 12.5561 13.8809C12.5561 12.414 10.4011 9.97198 9.18161 8.70581C9.36794 8.5128 9.53153 8.34719 9.66275 8.21671C9.70502 8.17472 9.75688 8.14112 9.81494 8.1181C9.87299 8.09509 9.9359 8.08319 9.99954 8.08319C10.0632 8.08319 10.1261 8.09509 10.1842 8.1181C10.2422 8.14112 10.2941 8.17472 10.3363 8.21671C11.3314 9.20494 14.1924 12.1928 14.1924 13.8809L14.1929 13.879Z" fill="#FCB96A"/>
</svg>
