<svg width="57" height="56" viewBox="0 0 57 56" fill="none" xmlns="http://www.w3.org/2000/svg">
<path d="M44.0749 25.9549V48.124H12.2801V25.9549C14.385 23.8341 17.1245 22.8404 19.6721 22.4158C23.6109 21.7609 27.0957 22.4632 27.0957 22.4632H29.2593C29.2593 22.4632 32.7441 21.7609 36.6829 22.4158C39.2304 22.8404 41.97 23.8341 44.0749 25.9549Z" fill="#D9D9FF"/>
<path d="M35.1913 29.4258V36.8167C35.1913 37.4404 34.6858 37.9459 34.0621 37.9459H22.2923C21.6686 37.9459 21.163 37.4404 21.163 36.8167V29.4258C21.163 28.8021 21.6686 28.2965 22.2923 28.2965H34.0621C34.6858 28.2966 35.1913 28.8021 35.1913 29.4258Z" fill="url(#paint0_linear_1_1676)"/>
<path d="M36.6829 22.4158C34.7429 24.9995 31.6511 26.6731 28.1775 26.6731C24.704 26.6731 21.6121 24.9995 19.6721 22.4158C23.6109 21.7609 27.0957 22.4632 27.0957 22.4632H29.2593C29.2593 22.4632 32.7441 21.7609 36.6829 22.4158Z" fill="#C8C7FF"/>
<path d="M12.0538 30.3801C12.0538 31.0169 11.8405 31.6581 11.4037 32.1876L7.40901 37.0309C6.40891 38.2428 4.61749 38.4149 3.40704 37.4148C2.19515 36.4161 2.02309 34.6247 3.02175 33.4128L7.01633 28.5695C8.0165 27.3576 9.80786 27.1855 11.0183 28.1857C11.7008 28.7475 12.0538 29.5608 12.0538 30.3801Z" fill="#D9D9FF"/>
<path d="M6.9911 37.9447C6.9911 39.8747 5.42629 41.4409 3.49483 41.4409C1.56481 41.4409 0 39.8747 0 37.9447C0 36.0147 1.56481 34.4484 3.49483 34.4484C5.42629 34.4484 6.9911 36.0147 6.9911 37.9447Z" fill="#C8C7FF"/>
<path d="M16.7303 26.7637C16.7303 29.2576 14.7082 31.2816 12.2125 31.2816C9.71848 31.2816 7.69641 29.2576 7.69641 26.7637C7.69641 24.2698 9.71848 22.2458 12.2125 22.2458C14.7082 22.2458 16.7303 24.2698 16.7303 26.7637Z" fill="url(#paint1_linear_1_1676)"/>
<path d="M12.5825 42.9116C12.1145 44.0085 11.0467 44.6663 9.92521 44.6663C9.54847 44.6663 9.16451 44.5924 8.79507 44.4345L5.1667 42.8867C3.70178 42.2607 3.01935 40.5655 3.64531 39.1006C4.11183 38.0038 5.17822 37.346 6.29973 37.346C6.67788 37.346 7.06183 37.4198 7.43135 37.5778L11.0597 39.1256C12.5261 39.7501 13.207 41.4453 12.5825 42.9116Z" fill="#D9D9FF"/>
<path d="M27.0951 39.4153V55.8621L12.1392 49.2811C11.8234 49.142 11.6205 48.829 11.6205 48.4856V33.9384C11.6205 33.311 12.2652 32.8893 12.8405 33.1429L27.0951 39.4153Z" fill="#FF8F76"/>
<path d="M27.0956 54.0189V55.8618L12.1399 49.2806C11.8238 49.1429 11.6205 48.8289 11.6205 48.4856V33.9388C11.6205 33.3109 12.2642 32.8886 12.8401 33.1438L13.0072 33.2183V47.2525C13.0072 47.5958 13.2104 47.9074 13.5266 48.0475L27.0956 54.0189Z" fill="#FD795F"/>
<path d="M27.095 39.4155L13.8677 33.5951L14.966 32.5765L15.1891 32.3693L15.6731 31.9201C15.6731 31.9201 20.5893 32.9402 24.0595 34.5978C25.9156 35.4831 27.095 37.3594 27.095 39.4155Z" fill="#F6F8FA"/>
<path d="M14.497 42.9778C15.0605 43.7915 14.4801 44.9049 13.49 44.9049C13.335 44.9049 13.1785 44.8759 13.0263 44.8136L10.2038 43.6632L9.97778 43.5545C9.61697 43.3806 9.38661 43.0141 9.38661 42.6127V37.6009C9.38661 36.4968 10.282 35.6028 11.3847 35.6028H11.6208V37.8791L14.3608 38.9556C15.2337 39.2986 15.4192 40.431 14.8447 40.9986C15.3922 41.5979 15.2371 42.585 14.497 42.9778Z" fill="url(#paint2_linear_1_1676)"/>
<path d="M14.9676 41.1609C14.552 41.5343 13.9881 41.6183 13.5129 41.4217L10.5745 40.2234L10.6513 40.0365L13.5897 41.2333C13.8824 41.3535 14.2055 41.3507 14.4982 41.2261C14.6343 41.1667 14.8489 40.9942 14.8445 40.9986C14.8908 41.0493 14.9314 41.1044 14.9676 41.1609Z" fill="#5640DB"/>
<path d="M14.6002 43.1576C14.2797 43.2676 13.9367 43.2522 13.638 43.1286L10.6996 41.9318L10.7764 41.7435L13.7149 42.9417C13.967 43.0431 14.2408 43.0562 14.4973 42.9779C14.5364 43.0345 14.5712 43.0953 14.6002 43.1576Z" fill="#5640DB"/>
<path d="M11.6218 37.8792L10.7992 37.5522L10.8745 37.3639L11.6218 37.663V37.8792Z" fill="#5640DB"/>
<path d="M44.301 30.3801C44.301 31.0169 44.5142 31.6581 44.951 32.1877L48.9457 37.0309C49.9458 38.2428 51.7372 38.4149 52.9477 37.4148C54.1596 36.4161 54.3316 34.6247 53.333 33.4128L49.3384 28.5695C48.3382 27.3576 46.5469 27.1856 45.3364 28.1857C44.6539 28.7475 44.301 29.5608 44.301 30.3801Z" fill="#D9D9FF"/>
<path d="M49.3641 37.9447C49.3641 39.8747 50.9289 41.441 52.8603 41.441C54.7903 41.441 56.3551 39.8747 56.3551 37.9447C56.3551 36.0147 54.7903 34.4484 52.8603 34.4484C50.9289 34.4484 49.3641 36.0147 49.3641 37.9447Z" fill="#C8C7FF"/>
<path d="M39.6248 26.7638C39.6248 29.2577 41.6468 31.2817 44.1426 31.2817C46.6366 31.2817 48.6587 29.2577 48.6587 26.7638C48.6587 24.2699 46.6366 22.2459 44.1426 22.2459C41.6468 22.2459 39.6248 24.2699 39.6248 26.7638Z" fill="url(#paint3_linear_1_1676)"/>
<path d="M43.7722 42.9117C44.4031 44.3901 46.1084 45.0549 47.5597 44.4345L51.1881 42.8867C52.653 42.2607 53.3354 40.5655 52.7094 39.1006C52.2429 38.0038 51.1765 37.346 50.055 37.346C49.6769 37.346 49.2929 37.4199 48.9234 37.5778L45.295 39.1256C43.8287 39.7501 43.1477 41.4453 43.7722 42.9117Z" fill="#D9D9FF"/>
<path d="M29.2597 39.4153V55.8621L44.2155 49.2811C44.5314 49.142 44.7342 48.829 44.7342 48.4856V33.9384C44.7342 33.311 44.0895 32.8893 43.5142 33.1429L29.2597 39.4153Z" fill="#FF8F76"/>
<path d="M29.2597 54.0189V55.8618L44.2153 49.2806C44.5315 49.1429 44.7347 48.8289 44.7347 48.4856V33.9388C44.7347 33.3109 44.0911 32.8886 43.5152 33.1438L43.348 33.2183V47.2525C43.348 47.5958 43.1448 47.9074 42.8286 48.0475L29.2597 54.0189Z" fill="#FD795F"/>
<path d="M42.487 33.5951L29.2597 39.4155C29.2597 37.3594 30.4391 35.483 32.2952 34.5978C35.7654 32.9402 40.6816 31.9201 40.6816 31.9201C40.7073 31.944 41.4351 32.6196 41.3887 32.5765L42.487 33.5951Z" fill="#F6F8FA"/>
<path d="M41.8579 42.9778C41.6312 43.3053 41.5703 43.7326 41.7217 44.1225C41.9735 44.7663 42.7 45.0711 43.3286 44.8136L46.1512 43.6632L46.3771 43.5545C46.738 43.3806 46.9683 43.0141 46.9683 42.6127V37.6009C46.9683 36.4968 46.0729 35.6028 44.9702 35.6028H44.7341V37.8791L41.9941 38.9556C41.1608 39.2831 40.9222 40.3469 41.4972 40.9827C41.5015 40.9885 41.5058 40.9943 41.5102 40.9986C40.966 41.5943 41.1136 42.5828 41.8579 42.9778Z" fill="url(#paint4_linear_1_1676)"/>
<path d="M41.3855 41.1609C41.6536 41.4018 41.9861 41.5245 42.32 41.5245C42.7861 41.5245 42.8083 41.4005 45.7786 40.2234L45.7018 40.0365L42.7634 41.2333C42.4708 41.3535 42.1476 41.3507 41.855 41.2261C41.7188 41.1667 41.5043 40.9942 41.5086 40.9986C41.4623 41.0493 41.4217 41.1044 41.3855 41.1609Z" fill="#5640DB"/>
<path d="M41.7549 43.1576C42.0753 43.2676 42.4183 43.2522 42.717 43.1286L45.6554 41.9318L45.5786 41.7435L42.6402 42.9417C42.3881 43.0431 42.1142 43.0562 41.8578 42.9779C41.8186 43.0344 41.7839 43.0953 41.7549 43.1576Z" fill="#5640DB"/>
<path d="M44.7334 37.8792L45.5559 37.5522L45.4806 37.3639L44.7334 37.663V37.8792Z" fill="#5640DB"/>
<path d="M30.342 55.0117C30.342 55.558 29.3727 55.9999 28.1774 55.9999C26.982 55.9999 26.0127 55.558 26.0127 55.0117C26.0127 54.4655 26.982 54.0221 28.1774 54.0221C29.3727 54.0221 30.342 54.4655 30.342 55.0117Z" fill="url(#paint5_linear_1_1676)"/>
<path d="M19.1446 34.2578L18.374 33.9504C18.2996 33.9207 18.2634 33.8364 18.2931 33.7621C18.3228 33.6877 18.4074 33.6515 18.4813 33.6812L19.2519 33.9886C19.4291 34.0592 19.3233 34.3298 19.1446 34.2578Z" fill="#D9D9FF"/>
<path d="M17.6029 33.6429L15.018 32.6113C14.9978 32.604 14.9804 32.591 14.9659 32.5765L15.189 32.3693L17.7101 33.3734C17.8862 33.4445 17.785 33.7128 17.6029 33.6429Z" fill="#D9D9FF"/>
<path d="M22.0664 36.4492L20.836 35.9573C20.7617 35.9276 20.7255 35.8433 20.7552 35.769C20.7849 35.6946 20.8691 35.6587 20.9435 35.6882L22.174 36.1801C22.2483 36.2098 22.2845 36.2942 22.2548 36.3684C22.2258 36.441 22.1429 36.4795 22.0664 36.4492Z" fill="#D9D9FF"/>
<path d="M19.783 35.5363L16.5851 34.2578C16.5108 34.2281 16.4745 34.1438 16.5043 34.0695C16.534 33.9951 16.6183 33.9592 16.6926 33.9887L19.8906 35.2671C19.9649 35.2968 20.0011 35.3812 19.9714 35.4555C19.9424 35.528 19.8595 35.5665 19.783 35.5363Z" fill="#D9D9FF"/>
<path d="M24.1844 36.1566L23.2662 35.7345C23.1935 35.701 23.1616 35.615 23.1952 35.5422C23.2284 35.4696 23.314 35.4377 23.3873 35.4711L24.3055 35.8933C24.3782 35.9268 24.4101 36.0128 24.3765 36.0855C24.3434 36.1578 24.2576 36.1901 24.1844 36.1566Z" fill="#D9D9FF"/>
<path d="M22.47 35.3684L20.7555 34.5802C20.6828 34.5467 20.6509 34.4607 20.6845 34.388C20.7177 34.3153 20.8035 34.2834 20.8766 34.3169L22.5911 35.1051C22.6639 35.1385 22.6957 35.2246 22.6622 35.2972C22.629 35.3697 22.5432 35.4018 22.47 35.3684Z" fill="#D9D9FF"/>
<path d="M37.0219 34.1769C36.9922 34.1025 37.0284 34.0182 37.1029 33.9886L39.3418 33.0954C39.4152 33.066 39.5003 33.1018 39.53 33.1763C39.5597 33.2506 39.5235 33.3349 39.449 33.3645L37.2101 34.2577C37.1352 34.2876 37.0513 34.2506 37.0219 34.1769Z" fill="#D9D9FF"/>
<path d="M41.3878 32.5765C41.3733 32.591 41.356 32.604 41.3357 32.6113C40.0179 33.133 40.0841 33.1213 40.0302 33.1213C39.8718 33.1213 39.8272 32.902 39.9766 32.8416L41.1646 32.3693L41.3878 32.5765Z" fill="#D9D9FF"/>
<path d="M34.1002 36.3684C34.0705 36.2941 34.1067 36.2098 34.181 36.1801L37.9203 34.6852C37.9945 34.6558 38.079 34.6916 38.1087 34.766C38.1384 34.8403 38.1022 34.9246 38.0279 34.9543L34.2885 36.4492C34.2121 36.4795 34.1292 36.441 34.1002 36.3684Z" fill="#D9D9FF"/>
<path d="M38.5542 34.5877C38.5244 34.5134 38.5607 34.4291 38.635 34.3993L39.6622 33.9887C39.7362 33.9592 39.8207 33.9951 39.8506 34.0695C39.8803 34.1437 39.8441 34.2281 39.7698 34.2578L38.7425 34.6685C38.666 34.6988 38.5831 34.6602 38.5542 34.5877Z" fill="#D9D9FF"/>
<path d="M31.9772 36.0854C31.9437 36.0128 31.9755 35.9267 32.0483 35.8933L33.7629 35.1051C33.8361 35.0717 33.9218 35.1035 33.9551 35.1762C33.9886 35.2489 33.9568 35.3349 33.884 35.3684L32.1694 36.1566C32.0963 36.19 32.0105 36.1579 31.9772 36.0854Z" fill="#D9D9FF"/>
<path d="M34.4137 34.9653C34.3802 34.8926 34.412 34.8066 34.4848 34.7732L35.4774 34.3168C35.5504 34.2835 35.6361 34.3153 35.6695 34.388C35.7031 34.4607 35.6712 34.5467 35.5985 34.5802L34.6059 35.0365C34.5328 35.0699 34.447 35.0378 34.4137 34.9653Z" fill="#D9D9FF"/>
<path d="M30.3422 39.357C30.3422 39.9033 29.3729 40.3452 28.1775 40.3452C26.9821 40.3452 26.0128 39.9033 26.0128 39.357C26.0128 38.8108 26.9821 38.3674 28.1775 38.3674C29.3729 38.3674 30.3422 38.8108 30.3422 39.357Z" fill="#FF8F76"/>
<path d="M26.0127 39.3569C26.0127 39.9032 26.982 40.3451 28.1773 40.3451C29.3727 40.3451 30.342 39.9032 30.342 39.3569V55.0117C30.342 55.5579 29.3727 55.9999 28.1773 55.9999C26.982 55.9999 26.0127 55.5579 26.0127 55.0117V39.3569Z" fill="#FD795F"/>
<path d="M40.2 11.6637V14.0312L36.7458 18.0636V7.48642L40.2 11.6637Z" fill="#7255EA"/>
<path d="M40.1999 11.6638V14.0313C39.5465 14.0313 39.0162 13.501 39.0162 12.8476C39.0162 12.1941 39.5465 11.6638 40.1999 11.6638Z" fill="#D9D9FF"/>
<path d="M16.1539 11.6637V14.0312L19.6082 18.0636V7.48642L16.1539 11.6637Z" fill="#7255EA"/>
<path d="M16.1537 11.6638V14.0313C16.8072 14.0313 17.3375 13.501 17.3375 12.8476C17.3375 12.1941 16.8072 11.6638 16.1537 11.6638Z" fill="#D9D9FF"/>
<path d="M38.1324 9.95548V16.0424C38.1324 21.5397 33.6755 25.9966 28.1768 25.9966C22.6796 25.9966 18.2227 21.5397 18.2227 16.0424V9.95548C18.2227 4.4568 22.6796 -0.000114441 28.1768 -0.000114441C30.9269 -0.000114441 33.4147 1.1141 35.2172 2.91511C37.0182 4.71761 38.1324 7.20542 38.1324 9.95548Z" fill="#D9D9FF"/>
<path d="M33.3871 20.3287C33.3871 20.3287 33.2031 20.6127 32.7699 20.9937C32.1947 21.5023 31.1775 22.1789 29.5721 22.5789C28.655 22.8063 27.6972 22.8063 26.78 22.5774C25.1746 22.179 24.1589 21.5009 23.5837 20.9937C23.1505 20.6127 22.9664 20.3272 22.9664 20.3272L33.3871 20.3287Z" fill="#C8C7FF"/>
<path d="M33.5758 17.6783C34.2831 16.971 34.2831 15.8242 33.5758 15.1169C32.8685 14.4096 31.7217 14.4096 31.0144 15.1169C30.3071 15.8242 30.3071 16.971 31.0144 17.6783C31.7217 18.3856 32.8685 18.3856 33.5758 17.6783Z" fill="#23194C"/>
<path d="M25.3399 17.6783C26.0472 16.971 26.0472 15.8242 25.3399 15.1169C24.6326 14.4096 23.4858 14.4096 22.7785 15.1169C22.0712 15.8242 22.0712 16.971 22.7785 17.6783C23.4858 18.3856 24.6326 18.3856 25.3399 17.6783Z" fill="#23194C"/>
<path d="M28.1772 7.07644C31.142 7.07644 33.5455 5.4923 33.5455 3.53816C33.5455 1.58403 31.142 -0.000114441 28.1772 -0.000114441C25.2123 -0.000114441 22.8089 1.58403 22.8089 3.53816C22.8089 5.4923 25.2123 7.07644 28.1772 7.07644Z" fill="url(#paint6_linear_1_1676)"/>
<path d="M28.1772 5.11434C29.498 5.11434 30.5687 4.40864 30.5687 3.53812C30.5687 2.66759 29.498 1.96189 28.1772 1.96189C26.8564 1.96189 25.7857 2.66759 25.7857 3.53812C25.7857 4.40864 26.8564 5.11434 28.1772 5.11434Z" fill="#D9D9FF"/>
<path d="M28.5101 7.07645H27.8436V20.3277H28.5101V7.07645Z" fill="#7255EA"/>
<path d="M33.3873 20.3286C33.3873 20.3286 33.2033 20.6126 32.7701 20.9936H23.5839C23.1506 20.6126 22.9666 20.3271 22.9666 20.3271L33.3873 20.3286Z" fill="#7255EA"/>
<defs>
<linearGradient id="paint0_linear_1_1676" x1="21.163" y1="33.1212" x2="35.1913" y2="33.1212" gradientUnits="userSpaceOnUse">
<stop offset="3.2e-07" stop-color="#C8C7FF"/>
<stop offset="1" stop-color="#A39CEF"/>
</linearGradient>
<linearGradient id="paint1_linear_1_1676" x1="7.69641" y1="26.7637" x2="16.7303" y2="26.7637" gradientUnits="userSpaceOnUse">
<stop offset="2.2e-07" stop-color="#A39CEF"/>
<stop offset="1" stop-color="#5431DC"/>
</linearGradient>
<linearGradient id="paint2_linear_1_1676" x1="9.38662" y1="40.2538" x2="15.1745" y2="40.2538" gradientUnits="userSpaceOnUse">
<stop offset="2.2e-07" stop-color="#A39CEF"/>
<stop offset="1" stop-color="#5431DC"/>
</linearGradient>
<linearGradient id="paint3_linear_1_1676" x1="39.6248" y1="26.7638" x2="48.6587" y2="26.7638" gradientUnits="userSpaceOnUse">
<stop offset="2.2e-07" stop-color="#A39CEF"/>
<stop offset="1" stop-color="#5431DC"/>
</linearGradient>
<linearGradient id="paint4_linear_1_1676" x1="41.182" y1="40.2538" x2="46.9683" y2="40.2538" gradientUnits="userSpaceOnUse">
<stop offset="2.2e-07" stop-color="#A39CEF"/>
<stop offset="1" stop-color="#5431DC"/>
</linearGradient>
<linearGradient id="paint5_linear_1_1676" x1="26.0127" y1="55.011" x2="30.342" y2="55.011" gradientUnits="userSpaceOnUse">
<stop offset="2.2e-07" stop-color="#F9BA70"/>
<stop offset="1" stop-color="#FE7055"/>
</linearGradient>
<linearGradient id="paint6_linear_1_1676" x1="22.8089" y1="3.53815" x2="33.5454" y2="3.53815" gradientUnits="userSpaceOnUse">
<stop offset="2.2e-07" stop-color="#A39CEF"/>
<stop offset="1" stop-color="#5431DC"/>
</linearGradient>
</defs>
</svg>
