<svg width="24" height="25" viewBox="0 0 24 25" fill="none" xmlns="http://www.w3.org/2000/svg">
<path fill-rule="evenodd" clip-rule="evenodd" d="M12.963 3.04478C12.9028 2.96402 12.8269 2.89623 12.7398 2.84546C12.6528 2.79469 12.5564 2.76199 12.4564 2.74929C12.3565 2.7366 12.255 2.74418 12.158 2.77158C12.061 2.79898 11.9706 2.84564 11.892 2.90878C9.97558 4.44735 8.71145 6.65341 8.35304 9.08478C7.69621 8.60848 7.12049 8.02938 6.64804 7.36978C6.58387 7.28008 6.50071 7.20564 6.40448 7.15175C6.30825 7.09787 6.20132 7.06588 6.09131 7.05805C5.9813 7.05022 5.87092 7.06674 5.76802 7.10645C5.66513 7.14616 5.57226 7.20807 5.49604 7.28778C4.17536 8.66933 3.32878 10.4355 3.07894 12.3303C2.82911 14.2252 3.18898 16.1504 4.10643 17.827C5.02388 19.5037 6.45128 20.8447 8.18184 21.6559C9.91241 22.4671 11.8563 22.7063 13.7319 22.3389C15.6075 21.9715 17.3174 21.0165 18.614 19.6123C19.9106 18.2081 20.7265 16.4276 20.9435 14.5287C21.1605 12.6298 20.7674 10.7111 19.8211 9.0506C18.8748 7.39007 17.4244 6.07391 15.68 5.29278C14.6077 4.77135 13.676 4.00048 12.963 3.04478ZM15.75 15.0088C15.7497 15.5512 15.6316 16.0871 15.404 16.5795C15.1765 17.0719 14.8448 17.509 14.4319 17.8608C14.019 18.2125 13.5347 18.4705 13.0124 18.617C12.4901 18.7634 11.9422 18.7948 11.4066 18.7089C10.871 18.6231 10.3604 18.4221 9.91005 18.1198C9.45968 17.8175 9.08025 17.421 8.79794 16.9579C8.51563 16.4947 8.33717 15.9758 8.27486 15.4369C8.21255 14.8981 8.26788 14.3522 8.43704 13.8368C9.06504 14.3018 9.78704 14.6468 10.57 14.8368C10.7823 13.4677 11.4626 12.2146 12.495 11.2908C13.396 11.4108 14.2228 11.8539 14.8215 12.5378C15.4203 13.2217 15.7502 14.0998 15.75 15.0088Z" fill="#D92D20"/>
</svg>
