<svg width="46" height="62" viewBox="0 0 46 62" fill="none" xmlns="http://www.w3.org/2000/svg">
<path fill-rule="evenodd" clip-rule="evenodd" d="M27.1872 23.3872C25.2971 22.7688 20.4552 21.6234 20.4552 16.1651C20.4552 10.7068 32.1879 -0.913858 38.739 0.961356C45.2902 2.83657 42.4609 16.9377 38.739 20.963C35.0172 24.9882 29.0773 24.0057 27.1872 23.3872Z" fill="#C5DDF0"/>
<path d="M23.7714 49.699H23.2908C23.2908 31.8919 27.5585 17.4158 36.099 6.27246L36.5129 6.46074C28.0203 17.5416 23.7714 31.9537 23.7714 49.699Z" fill="#7297C4"/>
<path fill-rule="evenodd" clip-rule="evenodd" d="M17.7701 36.5021C20.8814 35.5159 25.3233 31.5766 22.0931 25.9677C18.8628 20.3588 7.43922 13.3345 2.05586 16.9387C-3.32751 20.5429 3.18274 32.3689 6.54089 35.1371C9.89904 37.9053 14.6589 37.4884 17.7701 36.5021Z" fill="#C5DDF0"/>
<path d="M20.0515 49.6999L19.5708 49.698C19.6442 38.5043 15.732 29.5581 7.83752 22.8499L8.19362 22.6011C16.174 29.3823 20.1255 38.4183 20.0515 49.6999Z" fill="#7297C4"/>
<path fill-rule="evenodd" clip-rule="evenodd" d="M30.8057 40.0355C29.0587 39.0241 26.4528 37.6637 28.7379 33.1504C31.023 28.6372 41.2967 24.1754 44.7149 26.6989C48.1332 29.2224 44.0814 37.8833 40.1935 40.2377C36.3055 42.592 32.5527 41.047 30.8057 40.0355Z" fill="#C5DDF0"/>
<path d="M27.9933 49.7314L27.5201 49.6664C29.4477 41.332 33.622 34.6877 40.0445 29.739L40.3844 30.0008C34.0353 34.893 29.9045 41.4681 27.9933 49.7314Z" fill="#7297C4"/>
<path fill-rule="evenodd" clip-rule="evenodd" d="M11.2103 47.4269H37.0638V53.5177C37.0638 58.0906 33.3566 61.7977 28.7837 61.7977H19.4904C14.9174 61.7977 11.2103 58.0906 11.2103 53.5177V47.4269Z" fill="url(#paint0_linear_1_1992)"/>
<mask id="mask0_1_1992" style="mask-type:luminance" maskUnits="userSpaceOnUse" x="11" y="47" width="27" height="15">
<path fill-rule="evenodd" clip-rule="evenodd" d="M11.2103 47.4269H37.0638V53.5177C37.0638 58.0906 33.3566 61.7977 28.7837 61.7977H19.4904C14.9174 61.7977 11.2103 58.0906 11.2103 53.5177V47.4269Z" fill="white"/>
</mask>
<g mask="url(#mask0_1_1992)">
<path d="M10.1584 50.3737V50.0034H37.6598V50.3737H10.1584Z" fill="#7297C4"/>
<path d="M10.1584 52.8454V52.4751H37.6598V52.8454H10.1584Z" fill="#7297C4"/>
</g>
<defs>
<linearGradient id="paint0_linear_1_1992" x1="11.8108" y1="37.1971" x2="-3.78117" y2="72.1595" gradientUnits="userSpaceOnUse">
<stop stop-color="#CBDDEE"/>
<stop offset="1" stop-color="#B8D0E6"/>
<stop offset="1" stop-color="#B8D0E6"/>
</linearGradient>
</defs>
</svg>
