<svg width="154" height="28" viewBox="0 0 154 28" fill="none" xmlns="http://www.w3.org/2000/svg">
<mask id="path-1-inside-1_1_2014" fill="white">
<path d="M10.8925 4.46291C12.1848 4.46291 13.4644 4.71745 14.6584 5.21199C15.8523 5.70653 16.9371 6.43139 17.8509 7.34517C18.7647 8.25896 19.4895 9.34379 19.9841 10.5377C20.4786 11.7316 20.7332 13.0113 20.7332 14.3036C20.7332 15.5959 20.4786 16.8755 19.9841 18.0694C19.4895 19.2634 18.7647 20.3482 17.8509 21.262C16.9371 22.1758 15.8523 22.9006 14.6584 23.3952C13.4644 23.8897 12.1848 24.1442 10.8925 24.1442V20.4322C11.6973 20.4322 12.4943 20.2737 13.2378 19.9657C13.9814 19.6577 14.657 19.2063 15.2261 18.6372C15.7952 18.0681 16.2467 17.3925 16.5546 16.6489C16.8626 15.9053 17.0212 15.1084 17.0212 14.3036C17.0212 13.4987 16.8626 12.7018 16.5546 11.9582C16.2467 11.2147 15.7952 10.5391 15.2261 9.96995C14.657 9.40085 13.9814 8.94942 13.2378 8.64143C12.4943 8.33343 11.6973 8.17491 10.8925 8.17491V4.46291Z"/>
</mask>
<path d="M10.8925 4.46291C12.1848 4.46291 13.4644 4.71745 14.6584 5.21199C15.8523 5.70653 16.9371 6.43139 17.8509 7.34517C18.7647 8.25896 19.4895 9.34379 19.9841 10.5377C20.4786 11.7316 20.7332 13.0113 20.7332 14.3036C20.7332 15.5959 20.4786 16.8755 19.9841 18.0694C19.4895 19.2634 18.7647 20.3482 17.8509 21.262C16.9371 22.1758 15.8523 22.9006 14.6584 23.3952C13.4644 23.8897 12.1848 24.1442 10.8925 24.1442V20.4322C11.6973 20.4322 12.4943 20.2737 13.2378 19.9657C13.9814 19.6577 14.657 19.2063 15.2261 18.6372C15.7952 18.0681 16.2467 17.3925 16.5546 16.6489C16.8626 15.9053 17.0212 15.1084 17.0212 14.3036C17.0212 13.4987 16.8626 12.7018 16.5546 11.9582C16.2467 11.2147 15.7952 10.5391 15.2261 9.96995C14.657 9.40085 13.9814 8.94942 13.2378 8.64143C12.4943 8.33343 11.6973 8.17491 10.8925 8.17491V4.46291Z" stroke="#2F327D" stroke-width="6.56044" mask="url(#path-1-inside-1_1_2014)"/>
<rect x="10.8934" y="24.1442" width="3.65156" height="15.5346" transform="rotate(-90 10.8934 24.1442)" fill="#2F327D"/>
<rect x="10.8934" y="8.11102" width="3.65156" height="15.5346" transform="rotate(-90 10.8934 8.11102)" fill="#2F327D"/>
<rect x="17.9494" y="16.0945" width="3.65156" height="8.47906" transform="rotate(-90 17.9494 16.0945)" fill="#2F327D"/>
<mask id="path-5-inside-2_1_2014" fill="white">
<path d="M9.84066 4.46215C8.54836 4.46215 7.26872 4.71669 6.0748 5.21123C4.88088 5.70576 3.79605 6.43062 2.88226 7.34441C1.96847 8.2582 1.24361 9.34303 0.749075 10.537C0.254536 11.7309 -5.64879e-08 13.0105 0 14.3028C5.64879e-08 15.5951 0.254536 16.8747 0.749076 18.0687C1.24361 19.2626 1.96847 20.3474 2.88226 21.2612C3.79605 22.175 4.88088 22.8998 6.0748 23.3944C7.26872 23.8889 8.54836 24.1435 9.84066 24.1435V20.4315C9.03583 20.4315 8.23888 20.2729 7.49532 19.965C6.75176 19.657 6.07614 19.2055 5.50704 18.6364C4.93794 18.0673 4.48651 17.3917 4.17851 16.6481C3.87052 15.9046 3.71199 15.1076 3.71199 14.3028C3.71199 13.498 3.87052 12.701 4.17851 11.9575C4.48651 11.2139 4.93794 10.5383 5.50704 9.96919C6.07614 9.40009 6.75176 8.94866 7.49532 8.64066C8.23888 8.33267 9.03583 8.17414 9.84066 8.17414V4.46215Z"/>
</mask>
<path d="M9.84066 4.46215C8.54836 4.46215 7.26872 4.71669 6.0748 5.21123C4.88088 5.70576 3.79605 6.43062 2.88226 7.34441C1.96847 8.2582 1.24361 9.34303 0.749075 10.537C0.254536 11.7309 -5.64879e-08 13.0105 0 14.3028C5.64879e-08 15.5951 0.254536 16.8747 0.749076 18.0687C1.24361 19.2626 1.96847 20.3474 2.88226 21.2612C3.79605 22.175 4.88088 22.8998 6.0748 23.3944C7.26872 23.8889 8.54836 24.1435 9.84066 24.1435V20.4315C9.03583 20.4315 8.23888 20.2729 7.49532 19.965C6.75176 19.657 6.07614 19.2055 5.50704 18.6364C4.93794 18.0673 4.48651 17.3917 4.17851 16.6481C3.87052 15.9046 3.71199 15.1076 3.71199 14.3028C3.71199 13.498 3.87052 12.701 4.17851 11.9575C4.48651 11.2139 4.93794 10.5383 5.50704 9.96919C6.07614 9.40009 6.75176 8.94866 7.49532 8.64066C8.23888 8.33267 9.03583 8.17414 9.84066 8.17414V4.46215Z" stroke="#F48C06" stroke-width="6.56044" mask="url(#path-5-inside-2_1_2014)"/>
<rect x="3.4044" y="16.16" width="3.65156" height="3.46589" transform="rotate(-90 3.4044 16.16)" fill="#F48C06"/>
<path d="M45.8291 18.4435V21.5H37.0444V18.4435H45.8291ZM38.4595 5.01734V21.5H34.486V5.01734H38.4595ZM44.6971 11.5606V14.5152H37.0444V11.5606H44.6971ZM45.8631 5.01734V8.0852H37.0444V5.01734H45.8631ZM50.5158 9.25121L52.2365 12.6247L54.0139 9.25121H57.976L54.761 15.2171L58.1458 21.5H54.1497L52.2365 17.8774L50.3347 21.5H46.3386L49.7234 15.2171L46.5197 9.25121H50.5158ZM64.1797 18.7831C64.5344 18.7831 64.8363 18.7189 65.0853 18.5906C65.3419 18.4548 65.5344 18.2661 65.6627 18.0246C65.7985 17.7756 65.8627 17.4774 65.8551 17.1303H69.4437C69.4513 18.051 69.2248 18.8585 68.7645 19.5529C68.3117 20.2397 67.6928 20.7755 66.9079 21.1604C66.1306 21.5377 65.2514 21.7264 64.2702 21.7264C63.3118 21.7264 62.4741 21.5717 61.7571 21.2623C61.0401 20.9453 60.4401 20.5076 59.9571 19.9491C59.4817 19.3831 59.1232 18.7227 58.8817 17.968C58.6477 17.2133 58.5307 16.3945 58.5307 15.5115V15.2511C58.5307 14.3681 58.6477 13.5492 58.8817 12.7945C59.1232 12.0323 59.4817 11.3719 59.9571 10.8134C60.4401 10.2474 61.0363 9.80969 61.7458 9.50026C62.4627 9.18329 63.2967 9.0248 64.2476 9.0248C65.2664 9.0248 66.1645 9.21725 66.9419 9.60215C67.7268 9.98704 68.3418 10.5455 68.7871 11.2776C69.2324 12.0096 69.4513 12.8964 69.4437 13.9379H65.8551C65.8627 13.5681 65.8061 13.236 65.6853 12.9417C65.5646 12.6474 65.3759 12.4134 65.1193 12.2398C64.8702 12.0587 64.5495 11.9681 64.157 11.9681C63.7646 11.9681 63.4476 12.0549 63.2061 12.2285C62.9646 12.4021 62.7797 12.6436 62.6514 12.953C62.5307 13.2549 62.4476 13.6021 62.4024 13.9945C62.3646 14.3869 62.3458 14.8058 62.3458 15.2511V15.5115C62.3458 15.9643 62.3646 16.3907 62.4024 16.7907C62.4476 17.1831 62.5344 17.5303 62.6627 17.8322C62.791 18.1265 62.9759 18.3604 63.2174 18.534C63.4589 18.7001 63.7797 18.7831 64.1797 18.7831ZM77.0058 21.7264C76.0096 21.7264 75.1191 21.5717 74.3342 21.2623C73.5493 20.9453 72.8851 20.5113 72.3418 19.9604C71.8059 19.4095 71.3946 18.7755 71.1078 18.0586C70.8286 17.3416 70.689 16.5831 70.689 15.7831V15.353C70.689 14.4549 70.8135 13.6247 71.0625 12.8625C71.3116 12.0927 71.6814 11.421 72.172 10.8474C72.6625 10.2738 73.2776 9.82856 74.0172 9.51158C74.7568 9.18706 75.6172 9.0248 76.5983 9.0248C77.4662 9.0248 78.2435 9.16442 78.9303 9.44366C79.6171 9.7229 80.1982 10.1229 80.6737 10.6436C81.1567 11.1644 81.5227 11.7946 81.7717 12.5342C82.0283 13.2738 82.1566 14.1039 82.1566 15.0247V16.5756H72.1493V14.187H78.4322V13.8926C78.4397 13.4851 78.368 13.1379 78.2171 12.8511C78.0737 12.5643 77.8624 12.3455 77.5832 12.1945C77.3039 12.0436 76.9643 11.9681 76.5643 11.9681C76.1492 11.9681 75.8058 12.0587 75.5341 12.2398C75.27 12.421 75.0625 12.67 74.9115 12.987C74.7681 13.2964 74.6662 13.6549 74.6059 14.0624C74.5455 14.47 74.5153 14.9001 74.5153 15.353V15.7831C74.5153 16.236 74.5757 16.6473 74.6964 17.0171C74.8247 17.3869 75.0059 17.7039 75.2398 17.968C75.4813 18.2246 75.7681 18.4246 76.1002 18.568C76.4398 18.7114 76.8247 18.7831 77.2549 18.7831C77.7756 18.7831 78.2888 18.685 78.7944 18.4887C79.3001 18.2925 79.734 17.968 80.0963 17.5152L81.8283 19.5755C81.5793 19.9302 81.2246 20.2736 80.7642 20.6057C80.3114 20.9377 79.768 21.2094 79.1341 21.4208C78.5001 21.6245 77.7907 21.7264 77.0058 21.7264ZM87.7377 4.1117V21.5H83.9113V4.1117H87.7377Z" fill="#F48C06"/>
<path d="M91.6206 5.01734H93.7375L99.1374 18.4548L104.526 5.01734H106.654L99.9525 21.5H98.2997L91.6206 5.01734ZM90.93 5.01734H92.7979L93.1036 15.07V21.5H90.93V5.01734ZM105.466 5.01734H107.333V21.5H105.16V15.07L105.466 5.01734ZM113.13 9.25121V21.5H111.024V9.25121H113.13ZM110.865 6.00223C110.865 5.66261 110.967 5.37582 111.171 5.14187C111.382 4.90791 111.692 4.79093 112.099 4.79093C112.499 4.79093 112.805 4.90791 113.016 5.14187C113.235 5.37582 113.345 5.66261 113.345 6.00223C113.345 6.32675 113.235 6.60599 113.016 6.83994C112.805 7.06635 112.499 7.17956 112.099 7.17956C111.692 7.17956 111.382 7.06635 111.171 6.83994C110.967 6.60599 110.865 6.32675 110.865 6.00223ZM118.586 11.8662V21.5H116.492V9.25121H118.473L118.586 11.8662ZM118.088 14.9115L117.216 14.8775C117.224 14.0398 117.348 13.2662 117.59 12.5568C117.831 11.8398 118.171 11.2172 118.609 10.6889C119.046 10.1606 119.567 9.75309 120.171 9.4663C120.782 9.17197 121.458 9.0248 122.197 9.0248C122.801 9.0248 123.344 9.10782 123.827 9.27385C124.31 9.43234 124.722 9.68894 125.061 10.0436C125.409 10.3984 125.673 10.8587 125.854 11.4247C126.035 11.9832 126.125 12.6662 126.125 13.4738V21.5H124.02V13.4511C124.02 12.8096 123.926 12.2964 123.737 11.9115C123.548 11.5191 123.273 11.2361 122.91 11.0625C122.548 10.8814 122.103 10.7908 121.575 10.7908C121.054 10.7908 120.578 10.9002 120.148 11.1191C119.726 11.338 119.36 11.6398 119.05 12.0247C118.748 12.4096 118.511 12.8511 118.337 13.3492C118.171 13.8398 118.088 14.3605 118.088 14.9115ZM137.027 19.1227V4.1117H139.133V21.5H137.208L137.027 19.1227ZM128.786 15.5115V15.2737C128.786 14.3379 128.899 13.4889 129.125 12.7266C129.359 11.9568 129.688 11.2964 130.11 10.7455C130.54 10.1946 131.05 9.77195 131.639 9.47762C132.235 9.17574 132.899 9.0248 133.631 9.0248C134.401 9.0248 135.072 9.16065 135.646 9.43234C136.227 9.69648 136.718 10.0852 137.118 10.5984C137.525 11.104 137.846 11.7153 138.08 12.4323C138.314 13.1492 138.476 13.9605 138.567 14.8662V15.9077C138.484 16.8058 138.321 17.6133 138.08 18.3303C137.846 19.0472 137.525 19.6585 137.118 20.1642C136.718 20.6698 136.227 21.0585 135.646 21.3302C135.065 21.5943 134.386 21.7264 133.608 21.7264C132.891 21.7264 132.235 21.5717 131.639 21.2623C131.05 20.9528 130.54 20.5189 130.11 19.9604C129.688 19.4019 129.359 18.7453 129.125 17.9906C128.899 17.2284 128.786 16.402 128.786 15.5115ZM130.891 15.2737V15.5115C130.891 16.1228 130.952 16.6963 131.073 17.2322C131.201 17.768 131.397 18.2397 131.661 18.6472C131.925 19.0548 132.261 19.3755 132.669 19.6095C133.076 19.8359 133.563 19.9491 134.129 19.9491C134.823 19.9491 135.393 19.8019 135.838 19.5076C136.291 19.2133 136.654 18.8246 136.925 18.3416C137.197 17.8586 137.408 17.3341 137.559 16.768V14.0398C137.469 13.6247 137.337 13.2247 137.163 12.8398C136.997 12.4474 136.778 12.1002 136.506 11.7983C136.242 11.4889 135.914 11.2436 135.522 11.0625C135.137 10.8814 134.68 10.7908 134.152 10.7908C133.578 10.7908 133.084 10.9116 132.669 11.1531C132.261 11.387 131.925 11.7115 131.661 12.1266C131.397 12.5342 131.201 13.0096 131.073 13.553C130.952 14.0888 130.891 14.6624 130.891 15.2737ZM149.525 18.251C149.525 17.9491 149.457 17.6699 149.321 17.4133C149.193 17.1492 148.925 16.9114 148.517 16.7001C148.117 16.4812 147.514 16.2926 146.706 16.1341C146.027 15.9907 145.412 15.8209 144.861 15.6247C144.318 15.4284 143.853 15.1907 143.469 14.9115C143.091 14.6322 142.801 14.3039 142.597 13.9266C142.393 13.5492 142.291 13.1077 142.291 12.6021C142.291 12.1191 142.397 11.6625 142.608 11.2323C142.827 10.8021 143.133 10.421 143.525 10.0889C143.925 9.75686 144.404 9.49649 144.963 9.30781C145.521 9.11914 146.144 9.0248 146.831 9.0248C147.812 9.0248 148.65 9.19838 149.344 9.54554C150.038 9.89271 150.57 10.3568 150.94 10.938C151.31 11.5115 151.495 12.1493 151.495 12.8511H149.4C149.4 12.5115 149.299 12.1832 149.095 11.8662C148.899 11.5417 148.608 11.2738 148.223 11.0625C147.846 10.8512 147.382 10.7455 146.831 10.7455C146.25 10.7455 145.778 10.8361 145.416 11.0172C145.061 11.1908 144.801 11.4134 144.635 11.6851C144.476 11.9568 144.397 12.2436 144.397 12.5455C144.397 12.7719 144.435 12.9757 144.51 13.1568C144.593 13.3304 144.736 13.4926 144.94 13.6436C145.144 13.787 145.431 13.9228 145.801 14.0511C146.17 14.1794 146.642 14.3077 147.216 14.436C148.219 14.6624 149.046 14.9341 149.695 15.2511C150.344 15.5681 150.827 15.9567 151.144 16.4171C151.461 16.8775 151.619 17.4359 151.619 18.0925C151.619 18.6284 151.506 19.1189 151.28 19.5642C151.061 20.0095 150.74 20.3944 150.317 20.7189C149.902 21.0359 149.404 21.2849 148.823 21.466C148.25 21.6396 147.604 21.7264 146.887 21.7264C145.808 21.7264 144.895 21.534 144.148 21.1491C143.401 20.7642 142.835 20.2661 142.45 19.6548C142.065 19.0434 141.872 18.3982 141.872 17.719H143.978C144.008 18.2925 144.174 18.7491 144.476 19.0887C144.778 19.4208 145.148 19.6585 145.585 19.8019C146.023 19.9378 146.457 20.0057 146.887 20.0057C147.461 20.0057 147.94 19.9302 148.325 19.7793C148.717 19.6283 149.016 19.4208 149.219 19.1567C149.423 18.8925 149.525 18.5906 149.525 18.251Z" fill="#2F327D"/>
</svg>
