<svg width="24" height="24" viewBox="0 0 24 24" fill="none" xmlns="http://www.w3.org/2000/svg">
<path d="M18.7124 18.051L18.601 18.1293L18.5448 18.2532L17.2062 21.2C17.206 21.2005 17.2058 21.2009 17.2056 21.2014C17.0441 21.548 16.5928 21.5973 16.3658 21.3219L16.3645 21.3203L14.8845 19.5403L14.7345 19.36H14.5C12.9438 19.36 11.5053 18.8905 10.3545 18.0973L10.4787 17.9503C15.2336 17.4887 19 13.6785 19 9C19 8.60412 18.9719 8.21142 18.9185 7.82438C20.4986 9.02055 21.5 10.8399 21.5 12.86C21.5 14.9709 20.4132 16.8548 18.7124 18.051Z" fill="#6C7E8E" stroke="#6C7E8E"/>
<path d="M16.3 6.07C15.13 3.67 12.52 2 9.5 2C5.36 2 2 5.13 2 9C2 11.29 3.18 13.32 5 14.6L6.34 17.55C6.65 18.22 7.55 18.34 8.02 17.78L8.57 17.12L9.5 16C13.64 16 17 12.87 17 9C17 7.95 16.75 6.96 16.3 6.07ZM12 9.75H7C6.59 9.75 6.25 9.41 6.25 9C6.25 8.59 6.59 8.25 7 8.25H12C12.41 8.25 12.75 8.59 12.75 9C12.75 9.41 12.41 9.75 12 9.75Z" fill="#6C7E8E"/>
</svg>
