<svg width="25" height="20" viewBox="0 0 25 20" fill="none" xmlns="http://www.w3.org/2000/svg">
<path d="M1.98673 4.28128C2.58345 3.88931 7.20079 4.88893 7.20079 4.88893L5.96974 12.09C5.96974 12.09 3.97725 11.8385 3.38622 11.3809C2.79519 10.923 1.32636 4.71504 1.98673 4.28128Z" fill="#FFCD00"/>
<path d="M2.47596 9.463L6.30409 10.1334L6.73085 7.26031L1.93939 6.53913C2.06079 7.37362 2.28238 8.61714 2.47596 9.463Z" fill="#FFFFB7"/>
<path opacity="0.5" d="M7.19101 4.88679C7.18948 4.88636 7.18642 4.88592 7.18445 4.88549C7.17876 4.88417 7.16957 4.88242 7.16082 4.88045C7.1536 4.87892 7.14639 4.8774 7.1372 4.87543C7.13042 4.8739 7.12188 4.87214 7.11401 4.87061C7.10154 4.86799 7.0882 4.86514 7.07311 4.86208C7.05627 4.85858 7.03767 4.85464 7.01776 4.85049C7.00486 4.84786 6.99042 4.8448 6.97642 4.84196C6.96067 4.83868 6.94383 4.83518 6.92655 4.83168C6.90883 4.82796 6.8909 4.82424 6.87165 4.8203C6.8583 4.81746 6.84365 4.81461 6.82965 4.81177C6.78787 4.80324 6.74303 4.79405 6.69513 4.78443C6.68135 4.78158 6.66822 4.77896 6.654 4.77612C6.62754 4.77087 6.59975 4.76518 6.57176 4.75971C6.55579 4.75643 6.53983 4.75336 6.52342 4.75008C6.49389 4.74418 6.4637 4.73828 6.43264 4.73215C6.4123 4.72822 6.3913 4.72406 6.3703 4.7199C6.32415 4.71094 6.27668 4.70153 6.2279 4.69212C6.19881 4.68643 6.16993 4.68097 6.13997 4.67506C6.11066 4.66937 6.08047 4.66368 6.0505 4.658C6.02272 4.65275 5.99494 4.6475 5.96651 4.64203C5.93545 4.63612 5.90395 4.63022 5.87202 4.62431C5.84424 4.61906 5.81602 4.61382 5.7878 4.60857C5.75543 4.60266 5.72327 4.59654 5.69046 4.59063C5.19765 5.63116 4.42004 9.6894 4.52 11.8206C5.23112 11.9966 5.96935 12.0905 5.96935 12.0905L7.20041 4.88942C7.20085 4.88877 7.19582 4.88767 7.19101 4.88679Z" fill="#F45E44"/>
<path d="M23.3805 4.28125C22.7838 3.88927 18.1664 4.8889 18.1664 4.8889L19.3975 12.09C19.3975 12.09 21.39 11.8384 21.981 11.3808C22.572 10.923 24.0409 4.71501 23.3805 4.28125Z" fill="#FFCD00"/>
<path d="M22.8913 9.463L19.0632 10.1334L18.6364 7.26031L23.4279 6.53913C23.3065 7.37362 23.0849 8.61714 22.8913 9.463Z" fill="#FFFFB7"/>
<path opacity="0.5" d="M19.6766 4.58984C19.6436 4.59597 19.6117 4.60187 19.5793 4.60778C19.5511 4.61303 19.5229 4.61828 19.4951 4.62353C19.4632 4.62944 19.4319 4.63534 19.4006 4.64125C19.3724 4.6465 19.3444 4.65197 19.3166 4.65722C19.2866 4.66291 19.2565 4.66859 19.2271 4.67428C19.1972 4.67997 19.1683 4.68566 19.1392 4.69134C19.0904 4.70075 19.0427 4.71015 18.9968 4.71912C18.976 4.72327 18.9548 4.72743 18.9345 4.73137C18.9034 4.73749 18.8732 4.7434 18.8437 4.7493C18.8273 4.75259 18.8111 4.75587 18.7954 4.75893C18.7674 4.76462 18.7396 4.77009 18.7131 4.77534C18.6989 4.77818 18.6858 4.78081 18.672 4.78365C18.6243 4.79327 18.5795 4.80246 18.5375 4.81099C18.5235 4.81383 18.5088 4.8169 18.4955 4.81952C18.4762 4.82346 18.4583 4.82718 18.4406 4.8309C18.4233 4.8344 18.4064 4.8379 18.3907 4.84118C18.3767 4.84402 18.362 4.84708 18.3493 4.84971C18.3294 4.85386 18.3108 4.8578 18.294 4.8613C18.2789 4.86458 18.2656 4.8672 18.2531 4.86983C18.2452 4.87158 18.2367 4.87333 18.2299 4.87464C18.2207 4.87661 18.2135 4.87814 18.2063 4.87967C18.1975 4.88164 18.1884 4.88339 18.1827 4.88471C18.1807 4.88514 18.1776 4.8858 18.1761 4.88602C18.1713 4.88711 18.1663 4.8882 18.1663 4.8882L19.3973 12.0893C19.3973 12.0893 20.1356 11.9954 20.8467 11.8193C20.9471 9.68862 20.1697 5.63038 19.6766 4.58984Z" fill="#F45E44"/>
<path d="M20.3577 12.698C19.7398 14.5275 14.2869 19 12.6936 19C11.1003 19 5.56514 14.426 5.02923 12.698C4.49332 10.9699 5.68872 4.79584 6.22113 4.36317C6.75376 3.93051 18.5811 3.86139 19.032 4.28115C19.483 4.70069 20.9757 10.8684 20.3577 12.698Z" fill="#FFCD00"/>
<path d="M19.1735 12.5195C18.6507 14.0673 14.0379 17.8506 12.6901 17.8506C11.3422 17.8506 6.6599 13.9814 6.20645 12.5195C5.75301 11.0577 6.76423 5.8349 7.21483 5.46874C7.66521 5.10279 17.8107 5.02186 18.1922 5.37687C18.5737 5.73188 19.6963 10.9717 19.1735 12.5195Z" fill="#FFE75F"/>
<path d="M18.9367 12.4806C18.4332 13.9713 13.9904 17.6153 12.692 17.6153C11.3938 17.6153 6.88406 13.8884 6.44724 12.4806C6.01042 11.0726 6.98446 6.04209 7.41843 5.68949C7.85241 5.33688 17.5839 5.26536 17.9513 5.60746C18.3188 5.94957 19.4403 10.9899 18.9367 12.4806Z" fill="#FFF080"/>
<path d="M18.4807 12.4103C18.0139 13.7923 13.895 17.1707 12.6913 17.1707C11.4876 17.1707 7.30664 13.7155 6.90176 12.4103C6.49687 11.1051 7.39982 6.44118 7.80208 6.11438C8.20434 5.78759 17.2636 5.71519 17.6044 6.03236C17.945 6.34931 18.9472 11.0283 18.4807 12.4103Z" fill="#FFFFB7"/>
<path d="M17.0621 7.33586C16.7222 6.98216 16.0109 7.04997 15.4026 7.19411C15.1049 7.10049 14.0805 6.81198 12.7189 6.81198C11.3146 6.81198 10.262 7.12062 10.003 7.20396C9.38597 7.05369 8.65035 6.97582 8.30475 7.33586C7.92852 7.72784 8.05101 8.51507 8.12166 8.83509C8.26843 9.50399 8.65604 10.3695 9.26501 10.6084C9.48309 10.6939 9.69177 10.7269 9.88426 10.7269C9.97831 10.7269 10.0669 10.7175 10.1524 10.704C10.4615 11.9407 11.1153 13.0615 12.4625 13.1875V15.5427C11.4834 15.5643 10.722 15.7279 10.722 15.927C10.722 16.1407 11.7689 16.1123 12.8521 16.1123C13.9353 16.1123 14.6444 16.1407 14.6444 15.927C14.6444 15.7282 13.883 15.5643 12.9039 15.5427V13.191C14.2949 13.0978 14.9675 11.9676 15.2829 10.7134C15.3475 10.721 15.4133 10.7269 15.4822 10.7269C15.6747 10.7269 15.8834 10.6939 16.1014 10.6084C16.7106 10.3695 17.0982 9.50333 17.2448 8.83399C17.3159 8.51398 17.4384 7.7274 17.0621 7.33586ZM9.45378 10.1272C9.12458 9.99789 8.77679 9.40796 8.62673 8.72418C8.50686 8.17778 8.56877 7.8068 8.67792 7.69371C8.83629 7.52791 9.36126 7.57997 9.90526 7.71362C9.87923 8.2703 9.87201 9.2275 10.0431 10.195C9.86632 10.2184 9.66683 10.2107 9.45378 10.1272ZM16.7404 8.72331C16.593 9.39658 16.2371 10.0001 15.9133 10.1272C15.7276 10.1998 15.5529 10.2151 15.3938 10.2033C15.5684 9.22182 15.559 8.25084 15.5321 7.6959C16.0498 7.57559 16.5372 7.53622 16.6894 7.69393C16.7977 7.80702 16.8603 8.17734 16.7404 8.72331Z" fill="#FFE75F"/>
<path d="M17.3172 8.84996C17.3534 8.68707 17.4031 8.40386 17.3953 8.1098C17.3876 7.81812 17.3231 7.50042 17.1156 7.2845L17.0621 7.33586L17.1156 7.28449C16.9259 7.08706 16.6394 7.01368 16.3353 7.0042C16.0362 6.99487 15.707 7.04692 15.4053 7.11732C15.0802 7.0166 14.0624 6.73785 12.7189 6.73785C11.3377 6.73785 10.2939 7.03415 10.0003 7.12703C9.69431 7.05361 9.35717 6.99762 9.05045 7.00443C8.73888 7.01135 8.44428 7.08345 8.25127 7.28452L8.25127 7.28453C8.04382 7.50066 7.97926 7.81862 7.97152 8.1105C7.96372 8.40477 8.01331 8.68814 8.04926 8.85098C8.12395 9.19137 8.25996 9.58247 8.45589 9.9202C8.65101 10.2565 8.911 10.5492 9.23794 10.6774L9.23795 10.6774C9.46518 10.7665 9.6831 10.8011 9.88426 10.8011C9.95853 10.8011 10.0292 10.7955 10.0971 10.7868C10.4097 11.9866 11.0613 13.0959 12.3884 13.2542V15.4704C11.9252 15.4841 11.5124 15.5295 11.2093 15.5959C11.0504 15.6307 10.9177 15.6721 10.8229 15.7198C10.7757 15.7436 10.734 15.7709 10.7033 15.8028C10.6723 15.8349 10.6479 15.8767 10.6479 15.927C10.6479 15.9894 10.6877 16.0322 10.7292 16.0588C10.7703 16.0851 10.8249 16.1038 10.8854 16.1182C11.0075 16.1473 11.1779 16.164 11.3772 16.1738C11.6918 16.1893 12.0908 16.1882 12.5097 16.187C12.6228 16.1867 12.7374 16.1864 12.8521 16.1864C12.9698 16.1864 13.0834 16.1867 13.1924 16.1871C13.5822 16.1882 13.9123 16.1892 14.1591 16.1738C14.3163 16.1639 14.4469 16.1471 14.5398 16.1165C14.5863 16.1013 14.6294 16.0807 14.6619 16.051C14.6965 16.0193 14.7186 15.9774 14.7186 15.927C14.7186 15.8767 14.6942 15.8349 14.6631 15.8028C14.6324 15.771 14.5908 15.7437 14.5435 15.7199C14.4487 15.6722 14.316 15.6308 14.1572 15.596C13.8541 15.5296 13.4413 15.4841 12.9781 15.4704V13.2595C14.3491 13.1327 15.0197 12.0122 15.3388 10.7939C15.3849 10.7982 15.4326 10.8011 15.4822 10.8011C15.6834 10.8011 15.9013 10.7665 16.1285 10.6774C16.4556 10.5492 16.7156 10.2563 16.9107 9.9198C17.1067 9.58189 17.2426 9.19055 17.3172 8.84996ZM17.3172 8.84996C17.3172 8.85 17.3172 8.85003 17.3172 8.85007L17.2448 8.83399L17.3172 8.84985C17.3172 8.84988 17.3172 8.84992 17.3172 8.84996ZM8.73152 7.74491L8.73126 7.74519C8.71468 7.76236 8.69489 7.79515 8.6775 7.84854C8.66042 7.90101 8.64705 7.96914 8.64033 8.05241C8.6269 8.2189 8.64045 8.44077 8.69914 8.70829L8.73152 7.74491ZM8.73152 7.74491C8.7562 7.71907 8.80169 7.69566 8.87484 7.68071C8.94682 7.666 9.03776 7.66107 9.14393 7.66543C9.34055 7.67351 9.57992 7.71295 9.82849 7.7714C9.80542 8.32223 9.80387 9.21596 9.95656 10.1293C9.80986 10.1398 9.64991 10.1245 9.48085 10.0582C9.33976 10.0027 9.18123 9.84074 9.03694 9.59597M8.73152 7.74491L9.03694 9.59597M16.6894 7.69393L16.6359 7.7452C16.6524 7.76241 16.6721 7.79524 16.6894 7.84861C16.7065 7.90105 16.7198 7.96911 16.7266 8.05228C16.7401 8.21856 16.7267 8.44014 16.668 8.70741L16.668 8.70745C16.5958 9.03698 16.4727 9.34874 16.3291 9.59242C16.1835 9.83954 16.0243 10.0039 15.8863 10.0581C15.7438 10.1139 15.6081 10.1336 15.4812 10.1327C15.6362 9.20808 15.6329 8.30403 15.609 7.75448C15.8435 7.70266 16.0667 7.66937 16.2497 7.66476C16.349 7.66227 16.4339 7.66831 16.5012 7.68317C16.5694 7.69824 16.6123 7.7208 16.6361 7.74541L16.6894 7.69393ZM16.6894 7.69393C16.5372 7.53622 16.0498 7.57559 15.5321 7.6959L16.7404 8.72331C16.8602 8.17734 16.7977 7.80702 16.6894 7.69393ZM9.03694 9.59597C8.89447 9.3543 8.77267 9.04335 8.69914 8.7083L9.03694 9.59597Z" stroke="#DA7300" stroke-width="0.148257" stroke-miterlimit="10"/>
<path d="M12.8989 10.4787L13.2547 8.40314H13.6757L13.3199 10.4787H12.8989ZM11.95 10.0369V9.65147H13.735V10.0369H11.95ZM12.122 10.4787L12.4778 8.40314H12.8989L12.543 10.4787H12.122ZM12.0627 9.20373V8.81826H13.8447V9.20373H12.0627Z" fill="#DA7300"/>
</svg>
