<svg width="20" height="21" viewBox="0 0 20 21" fill="none" xmlns="http://www.w3.org/2000/svg">
<path d="M6.45838 2.84213C6.45838 2.67637 6.39253 2.5174 6.27532 2.40019C6.15811 2.28298 5.99914 2.21713 5.83338 2.21713C5.66762 2.21713 5.50865 2.28298 5.39144 2.40019C5.27423 2.5174 5.20838 2.67637 5.20838 2.84213V4.1588C4.00838 4.25463 3.22171 4.48963 2.64338 5.0688C2.06421 5.64713 1.82921 6.43463 1.73254 7.6338H18.2675C18.1709 6.4338 17.9359 5.64713 17.3567 5.0688C16.7784 4.48963 15.9909 4.25463 14.7917 4.15797V2.84213C14.7917 2.67637 14.7259 2.5174 14.6087 2.40019C14.4914 2.28298 14.3325 2.21713 14.1667 2.21713C14.001 2.21713 13.842 2.28298 13.7248 2.40019C13.6076 2.5174 13.5417 2.67637 13.5417 2.84213V4.10297C12.9875 4.09213 12.3659 4.09213 11.6667 4.09213H8.33338C7.63421 4.09213 7.01254 4.09213 6.45838 4.10297V2.84213Z" fill="#F43E4E"/>
<path fill-rule="evenodd" clip-rule="evenodd" d="M1.66663 10.7588C1.66663 10.0596 1.66663 9.43796 1.67746 8.88379H18.3225C18.3333 9.43796 18.3333 10.0596 18.3333 10.7588V12.4255C18.3333 15.568 18.3333 17.1396 17.3566 18.1155C16.38 19.0913 14.8091 19.0921 11.6666 19.0921H8.33329C5.19079 19.0921 3.61913 19.0921 2.64329 18.1155C1.66746 17.1388 1.66663 15.568 1.66663 12.4255V10.7588ZM14.1666 12.4255C14.3876 12.4255 14.5996 12.3377 14.7559 12.1814C14.9122 12.0251 15 11.8131 15 11.5921C15 11.3711 14.9122 11.1591 14.7559 11.0029C14.5996 10.8466 14.3876 10.7588 14.1666 10.7588C13.9456 10.7588 13.7336 10.8466 13.5774 11.0029C13.4211 11.1591 13.3333 11.3711 13.3333 11.5921C13.3333 11.8131 13.4211 12.0251 13.5774 12.1814C13.7336 12.3377 13.9456 12.4255 14.1666 12.4255ZM14.1666 15.7588C14.3876 15.7588 14.5996 15.671 14.7559 15.5147C14.9122 15.3584 15 15.1465 15 14.9255C15 14.7044 14.9122 14.4925 14.7559 14.3362C14.5996 14.1799 14.3876 14.0921 14.1666 14.0921C13.9456 14.0921 13.7336 14.1799 13.5774 14.3362C13.4211 14.4925 13.3333 14.7044 13.3333 14.9255C13.3333 15.1465 13.4211 15.3584 13.5774 15.5147C13.7336 15.671 13.9456 15.7588 14.1666 15.7588ZM10.8333 11.5921C10.8333 11.8131 10.7455 12.0251 10.5892 12.1814C10.4329 12.3377 10.221 12.4255 9.99996 12.4255C9.77894 12.4255 9.56698 12.3377 9.4107 12.1814C9.25442 12.0251 9.16663 11.8131 9.16663 11.5921C9.16663 11.3711 9.25442 11.1591 9.4107 11.0029C9.56698 10.8466 9.77894 10.7588 9.99996 10.7588C10.221 10.7588 10.4329 10.8466 10.5892 11.0029C10.7455 11.1591 10.8333 11.3711 10.8333 11.5921ZM10.8333 14.9255C10.8333 15.1465 10.7455 15.3584 10.5892 15.5147C10.4329 15.671 10.221 15.7588 9.99996 15.7588C9.77894 15.7588 9.56698 15.671 9.4107 15.5147C9.25442 15.3584 9.16663 15.1465 9.16663 14.9255C9.16663 14.7044 9.25442 14.4925 9.4107 14.3362C9.56698 14.1799 9.77894 14.0921 9.99996 14.0921C10.221 14.0921 10.4329 14.1799 10.5892 14.3362C10.7455 14.4925 10.8333 14.7044 10.8333 14.9255ZM5.83329 12.4255C6.05431 12.4255 6.26627 12.3377 6.42255 12.1814C6.57883 12.0251 6.66663 11.8131 6.66663 11.5921C6.66663 11.3711 6.57883 11.1591 6.42255 11.0029C6.26627 10.8466 6.05431 10.7588 5.83329 10.7588C5.61228 10.7588 5.40032 10.8466 5.24404 11.0029C5.08776 11.1591 4.99996 11.3711 4.99996 11.5921C4.99996 11.8131 5.08776 12.0251 5.24404 12.1814C5.40032 12.3377 5.61228 12.4255 5.83329 12.4255ZM5.83329 15.7588C6.05431 15.7588 6.26627 15.671 6.42255 15.5147C6.57883 15.3584 6.66663 15.1465 6.66663 14.9255C6.66663 14.7044 6.57883 14.4925 6.42255 14.3362C6.26627 14.1799 6.05431 14.0921 5.83329 14.0921C5.61228 14.0921 5.40032 14.1799 5.24404 14.3362C5.08776 14.4925 4.99996 14.7044 4.99996 14.9255C4.99996 15.1465 5.08776 15.3584 5.24404 15.5147C5.40032 15.671 5.61228 15.7588 5.83329 15.7588Z" fill="#F43E4E"/>
</svg>
